<mxfile host="Electron" agent="Mozilla/5.0 (Windows NT 10.0; Win64; x64) AppleWebKit/537.36 (KHTML, like Gecko) draw.io/28.0.4 Chrome/138.0.7204.97 Electron/37.2.1 Safari/537.36" version="28.0.4">
  <diagram name="Página-1" id="WoX_gZ88ygKBCwwq3w2n">
    <mxGraphModel dx="2505" dy="989" grid="1" gridSize="10" guides="1" tooltips="1" connect="1" arrows="1" fold="1" page="1" pageScale="1" pageWidth="827" pageHeight="1169" math="0" shadow="0">
      <root>
        <mxCell id="0" />
        <mxCell id="1" parent="0" />
        <mxCell id="ZvTTCeS15qckxmK0OYnX-47" value="" style="rounded=0;whiteSpace=wrap;html=1;strokeColor=#0E7DAD;strokeWidth=3;dashed=1;dashPattern=8 8;fillColor=none;" vertex="1" parent="1">
          <mxGeometry x="-30" y="360" width="1400" height="590" as="geometry" />
        </mxCell>
        <mxCell id="ZvTTCeS15qckxmK0OYnX-10" value="" style="group;dashed=1;dashPattern=12 12;strokeColor=none;strokeWidth=2;" vertex="1" connectable="0" parent="1">
          <mxGeometry y="400" width="1310" height="120" as="geometry" />
        </mxCell>
        <object placeholders="1" c4Name="Modulo autenticación" c4Type="Component" c4Technology="NestJS Module" c4Description="Gestiona login, registro y autorización por token JWT." label="&lt;font style=&quot;font-size: 16px&quot;&gt;&lt;b&gt;%c4Name%&lt;/b&gt;&lt;/font&gt;&lt;div&gt;[%c4Type%: %c4Technology%]&lt;/div&gt;&lt;br&gt;&lt;div&gt;&lt;font style=&quot;font-size: 11px&quot;&gt;%c4Description%&lt;/font&gt;&lt;/div&gt;" id="ZvTTCeS15qckxmK0OYnX-3">
          <mxCell style="rounded=1;whiteSpace=wrap;html=1;labelBackgroundColor=none;fillColor=none;fontColor=#0E7DAD;align=center;arcSize=6;strokeColor=#0E7DAD;metaEdit=1;resizable=0;points=[[0.25,0,0],[0.5,0,0],[0.75,0,0],[1,0.25,0],[1,0.5,0],[1,0.75,0],[0.75,1,0],[0.5,1,0],[0.25,1,0],[0,0.75,0],[0,0.5,0],[0,0.25,0]];strokeWidth=3;spacingLeft=10;spacingRight=10;" vertex="1" parent="ZvTTCeS15qckxmK0OYnX-10">
            <mxGeometry width="240" height="120" as="geometry" />
          </mxCell>
        </object>
        <object placeholders="1" c4Name="Modulo personajes" c4Type="Component" c4Technology="NestJS Module" c4Description="Gestiona los personajes a utilizar en el gacha. " label="&lt;font style=&quot;font-size: 16px&quot;&gt;&lt;b&gt;%c4Name%&lt;/b&gt;&lt;/font&gt;&lt;div&gt;[%c4Type%: %c4Technology%]&lt;/div&gt;&lt;br&gt;&lt;div&gt;&lt;font style=&quot;font-size: 11px&quot;&gt;%c4Description%&lt;/font&gt;&lt;/div&gt;" id="ZvTTCeS15qckxmK0OYnX-4">
          <mxCell style="rounded=1;whiteSpace=wrap;html=1;labelBackgroundColor=none;fillColor=none;fontColor=#0E7DAD;align=center;arcSize=6;strokeColor=#0E7DAD;metaEdit=1;resizable=0;points=[[0.25,0,0],[0.5,0,0],[0.75,0,0],[1,0.25,0],[1,0.5,0],[1,0.75,0],[0.75,1,0],[0.5,1,0],[0.25,1,0],[0,0.75,0],[0,0.5,0],[0,0.25,0]];strokeWidth=3;spacingLeft=10;spacingRight=10;" vertex="1" parent="ZvTTCeS15qckxmK0OYnX-10">
            <mxGeometry x="803" width="240" height="120" as="geometry" />
          </mxCell>
        </object>
        <object placeholders="1" c4Name="Modulo roles" c4Type="Component" c4Technology="NestJS Module" c4Description="Gestiona los roles disponibles que pueden tener los usuarios con sus respectivos permisos." label="&lt;font style=&quot;font-size: 16px&quot;&gt;&lt;b&gt;%c4Name%&lt;/b&gt;&lt;/font&gt;&lt;div&gt;[%c4Type%: %c4Technology%]&lt;/div&gt;&lt;br&gt;&lt;div&gt;&lt;font style=&quot;font-size: 11px&quot;&gt;%c4Description%&lt;/font&gt;&lt;/div&gt;" id="ZvTTCeS15qckxmK0OYnX-5">
          <mxCell style="rounded=1;whiteSpace=wrap;html=1;labelBackgroundColor=none;fillColor=none;fontColor=#0E7DAD;align=center;arcSize=6;strokeColor=#0E7DAD;metaEdit=1;resizable=0;points=[[0.25,0,0],[0.5,0,0],[0.75,0,0],[1,0.25,0],[1,0.5,0],[1,0.75,0],[0.75,1,0],[0.5,1,0],[0.25,1,0],[0,0.75,0],[0,0.5,0],[0,0.25,0]];strokeWidth=3;spacingLeft=10;spacingRight=10;" vertex="1" parent="ZvTTCeS15qckxmK0OYnX-10">
            <mxGeometry x="535" width="240" height="120" as="geometry" />
          </mxCell>
        </object>
        <object placeholders="1" c4Name="Modulo gacha" c4Type="Component" c4Technology="NestJS Module" c4Description="Gestiona la funcionalidad del gacha: tiradas, obtención de personajes, probabilidad e historial." label="&lt;font style=&quot;font-size: 16px&quot;&gt;&lt;b&gt;%c4Name%&lt;/b&gt;&lt;/font&gt;&lt;div&gt;[%c4Type%: %c4Technology%]&lt;/div&gt;&lt;br&gt;&lt;div&gt;&lt;font style=&quot;font-size: 11px&quot;&gt;%c4Description%&lt;/font&gt;&lt;/div&gt;" id="ZvTTCeS15qckxmK0OYnX-6">
          <mxCell style="rounded=1;whiteSpace=wrap;html=1;labelBackgroundColor=none;fillColor=none;fontColor=#0E7DAD;align=center;arcSize=6;strokeColor=#0E7DAD;metaEdit=1;resizable=0;points=[[0.25,0,0],[0.5,0,0],[0.75,0,0],[1,0.25,0],[1,0.5,0],[1,0.75,0],[0.75,1,0],[0.5,1,0],[0.25,1,0],[0,0.75,0],[0,0.5,0],[0,0.25,0]];strokeWidth=3;spacingLeft=10;spacingRight=10;" vertex="1" parent="ZvTTCeS15qckxmK0OYnX-10">
            <mxGeometry x="1070" width="240" height="120" as="geometry" />
          </mxCell>
        </object>
        <object placeholders="1" c4Name="Modulo usuarios" c4Type="Component" c4Technology="NestJS Module" c4Description="Gestiona los usuarios, creación, visualización, modificación y eliminación." label="&lt;font style=&quot;font-size: 16px&quot;&gt;&lt;b&gt;%c4Name%&lt;/b&gt;&lt;/font&gt;&lt;div&gt;[%c4Type%: %c4Technology%]&lt;/div&gt;&lt;br&gt;&lt;div&gt;&lt;font style=&quot;font-size: 11px&quot;&gt;%c4Description%&lt;/font&gt;&lt;/div&gt;" id="ZvTTCeS15qckxmK0OYnX-9">
          <mxCell style="rounded=1;whiteSpace=wrap;html=1;labelBackgroundColor=none;fillColor=none;fontColor=#0E7DAD;align=center;arcSize=6;strokeColor=#0E7DAD;metaEdit=1;resizable=0;points=[[0.25,0,0],[0.5,0,0],[0.75,0,0],[1,0.25,0],[1,0.5,0],[1,0.75,0],[0.75,1,0],[0.5,1,0],[0.25,1,0],[0,0.75,0],[0,0.5,0],[0,0.25,0]];strokeWidth=3;spacingLeft=10;spacingRight=10;" vertex="1" parent="ZvTTCeS15qckxmK0OYnX-10">
            <mxGeometry x="268" width="240" height="120" as="geometry" />
          </mxCell>
        </object>
        <object placeholders="1" c4Type="Relationship" c4Description="Obtiene detalle de &#xa;los personajes" label="&lt;div style=&quot;text-align: left&quot;&gt;&lt;div style=&quot;text-align: center&quot;&gt;&lt;b&gt;%c4Description%&lt;/b&gt;&lt;/div&gt;&lt;/div&gt;" id="ZvTTCeS15qckxmK0OYnX-14">
          <mxCell style="endArrow=blockThin;html=1;fontSize=12;fontColor=#404040;strokeWidth=2;endFill=1;strokeColor=#CC0000;elbow=vertical;metaEdit=1;endSize=14;startSize=14;jumpStyle=arc;jumpSize=16;rounded=0;edgeStyle=orthogonalEdgeStyle;exitX=0.25;exitY=1;exitDx=0;exitDy=0;exitPerimeter=0;entryX=0.75;entryY=1;entryDx=0;entryDy=0;entryPerimeter=0;dashed=1;" edge="1" parent="ZvTTCeS15qckxmK0OYnX-10" source="ZvTTCeS15qckxmK0OYnX-6" target="ZvTTCeS15qckxmK0OYnX-4">
            <mxGeometry width="240" relative="1" as="geometry">
              <mxPoint x="920" y="200" as="sourcePoint" />
              <mxPoint x="1160" y="200" as="targetPoint" />
              <Array as="points">
                <mxPoint x="1130" y="150" />
                <mxPoint x="983" y="150" />
              </Array>
            </mxGeometry>
          </mxCell>
        </object>
        <object placeholders="1" c4Type="Relationship" c4Description="Valida y envia información &#xa;del usuario autenticado." label="&lt;div style=&quot;text-align: left&quot;&gt;&lt;div style=&quot;text-align: center&quot;&gt;&lt;b&gt;%c4Description%&lt;/b&gt;&lt;/div&gt;&lt;/div&gt;" id="ZvTTCeS15qckxmK0OYnX-25">
          <mxCell style="endArrow=blockThin;html=1;fontSize=13;fontColor=#404040;strokeWidth=2;endFill=1;strokeColor=#000099;elbow=vertical;metaEdit=1;endSize=14;startSize=14;jumpStyle=arc;jumpSize=16;rounded=0;edgeStyle=orthogonalEdgeStyle;entryX=0.5;entryY=1;entryDx=0;entryDy=0;entryPerimeter=0;exitX=0.75;exitY=1;exitDx=0;exitDy=0;exitPerimeter=0;dashed=1;dashPattern=8 8;" edge="1" parent="ZvTTCeS15qckxmK0OYnX-10" source="ZvTTCeS15qckxmK0OYnX-3" target="ZvTTCeS15qckxmK0OYnX-6">
            <mxGeometry x="-0.2137" y="-20" width="240" relative="1" as="geometry">
              <mxPoint x="250" y="200" as="sourcePoint" />
              <mxPoint x="490" y="200" as="targetPoint" />
              <Array as="points">
                <mxPoint x="180" y="200" />
                <mxPoint x="1190" y="200" />
              </Array>
              <mxPoint as="offset" />
            </mxGeometry>
          </mxCell>
        </object>
        <object placeholders="1" c4Type="Relationship" id="ZvTTCeS15qckxmK0OYnX-27">
          <mxCell style="endArrow=blockThin;html=1;fontSize=10;fontColor=#404040;strokeWidth=2;endFill=1;strokeColor=#000099;elbow=vertical;metaEdit=1;endSize=14;startSize=14;jumpStyle=arc;jumpSize=16;rounded=0;edgeStyle=orthogonalEdgeStyle;entryX=0.25;entryY=1;entryDx=0;entryDy=0;entryPerimeter=0;exitX=0.75;exitY=1;exitDx=0;exitDy=0;exitPerimeter=0;dashed=1;dashPattern=8 8;" edge="1" parent="ZvTTCeS15qckxmK0OYnX-10" source="ZvTTCeS15qckxmK0OYnX-3" target="ZvTTCeS15qckxmK0OYnX-5">
            <mxGeometry width="240" relative="1" as="geometry">
              <mxPoint x="240" y="160" as="sourcePoint" />
              <mxPoint x="480" y="160" as="targetPoint" />
              <Array as="points">
                <mxPoint x="180" y="200" />
                <mxPoint x="595" y="200" />
              </Array>
            </mxGeometry>
          </mxCell>
        </object>
        <object placeholders="1" c4Type="Relationship" id="ZvTTCeS15qckxmK0OYnX-29">
          <mxCell style="endArrow=blockThin;html=1;fontSize=10;fontColor=#404040;strokeWidth=2;endFill=1;strokeColor=#000099;elbow=vertical;metaEdit=1;endSize=14;startSize=14;jumpStyle=arc;jumpSize=16;rounded=0;edgeStyle=orthogonalEdgeStyle;entryX=0.25;entryY=1;entryDx=0;entryDy=0;entryPerimeter=0;exitX=0.75;exitY=1;exitDx=0;exitDy=0;exitPerimeter=0;dashed=1;dashPattern=8 8;" edge="1" parent="ZvTTCeS15qckxmK0OYnX-10" source="ZvTTCeS15qckxmK0OYnX-3" target="ZvTTCeS15qckxmK0OYnX-9">
            <mxGeometry width="240" relative="1" as="geometry">
              <mxPoint x="190" y="140" as="sourcePoint" />
              <mxPoint x="430" y="140" as="targetPoint" />
              <Array as="points">
                <mxPoint x="180" y="200" />
                <mxPoint x="328" y="200" />
              </Array>
            </mxGeometry>
          </mxCell>
        </object>
        <mxCell id="ZvTTCeS15qckxmK0OYnX-2" value="Component backend Diagram" style="text;html=1;align=center;verticalAlign=middle;resizable=0;points=[];autosize=1;strokeColor=none;fillColor=none;fontSize=30;fontStyle=1" vertex="1" parent="1">
          <mxGeometry x="445" y="20" width="420" height="50" as="geometry" />
        </mxCell>
        <object placeholders="1" c4Type="Relationship" c4Technology="JSON/HTTP" c4Description="Envía credenciales de login" label="&lt;div style=&quot;text-align: left&quot;&gt;&lt;div style=&quot;text-align: center&quot;&gt;&lt;b&gt;%c4Description%&lt;/b&gt;&lt;/div&gt;&lt;div style=&quot;text-align: center&quot;&gt;[%c4Technology%]&lt;/div&gt;&lt;/div&gt;" id="ZvTTCeS15qckxmK0OYnX-7">
          <mxCell style="endArrow=blockThin;html=1;fontSize=12;fontColor=#404040;strokeWidth=2;endFill=1;strokeColor=#828282;elbow=vertical;metaEdit=1;endSize=14;startSize=14;jumpStyle=arc;jumpSize=16;rounded=0;exitX=0;exitY=0.5;exitDx=0;exitDy=0;exitPerimeter=0;entryX=0.5;entryY=0;entryDx=0;entryDy=0;entryPerimeter=0;dashed=1;dashPattern=12 12;" edge="1" parent="1" source="ZvTTCeS15qckxmK0OYnX-49" target="ZvTTCeS15qckxmK0OYnX-3">
            <mxGeometry width="240" relative="1" as="geometry">
              <mxPoint x="230" y="270" as="sourcePoint" />
              <mxPoint x="470" y="270" as="targetPoint" />
            </mxGeometry>
          </mxCell>
        </object>
        <object placeholders="1" c4Type="Relationship" c4Technology="JSON/HTTP" c4Description="Obtiene y envía información &#xa;de usuarios." label="&lt;div style=&quot;text-align: left&quot;&gt;&lt;div style=&quot;text-align: center&quot;&gt;&lt;b&gt;%c4Description%&lt;/b&gt;&lt;/div&gt;&lt;div style=&quot;text-align: center&quot;&gt;[%c4Technology%]&lt;/div&gt;&lt;/div&gt;" id="ZvTTCeS15qckxmK0OYnX-11">
          <mxCell style="endArrow=blockThin;html=1;fontSize=12;fontColor=#404040;strokeWidth=2;endFill=1;strokeColor=#828282;elbow=vertical;metaEdit=1;endSize=14;startSize=14;jumpStyle=arc;jumpSize=16;rounded=0;exitX=0.19;exitY=0.994;exitDx=0;exitDy=0;exitPerimeter=0;entryX=0.5;entryY=0;entryDx=0;entryDy=0;entryPerimeter=0;dashed=1;dashPattern=12 12;" edge="1" parent="1" source="ZvTTCeS15qckxmK0OYnX-49" target="ZvTTCeS15qckxmK0OYnX-9">
            <mxGeometry x="0.0014" width="240" relative="1" as="geometry">
              <mxPoint x="650" y="260" as="sourcePoint" />
              <mxPoint x="250" y="480" as="targetPoint" />
              <mxPoint as="offset" />
            </mxGeometry>
          </mxCell>
        </object>
        <object placeholders="1" c4Type="Relationship" c4Technology="JSON/HTTP" c4Description="Enviar modificaciones o &#xa;creación de roles." label="&lt;div style=&quot;text-align: left&quot;&gt;&lt;div style=&quot;text-align: center&quot;&gt;&lt;b&gt;%c4Description%&lt;/b&gt;&lt;/div&gt;&lt;div style=&quot;text-align: center&quot;&gt;[%c4Technology%]&lt;/div&gt;&lt;/div&gt;" id="ZvTTCeS15qckxmK0OYnX-12">
          <mxCell style="endArrow=blockThin;html=1;fontSize=12;fontColor=#404040;strokeWidth=2;endFill=1;strokeColor=#828282;elbow=vertical;metaEdit=1;endSize=14;startSize=14;jumpStyle=arc;jumpSize=16;rounded=0;exitX=0.5;exitY=1;exitDx=0;exitDy=0;exitPerimeter=0;entryX=0.5;entryY=0;entryDx=0;entryDy=0;entryPerimeter=0;dashed=1;dashPattern=12 12;" edge="1" parent="1" source="ZvTTCeS15qckxmK0OYnX-49" target="ZvTTCeS15qckxmK0OYnX-5">
            <mxGeometry width="240" relative="1" as="geometry">
              <mxPoint x="855" y="330" as="sourcePoint" />
              <mxPoint x="455" y="550" as="targetPoint" />
            </mxGeometry>
          </mxCell>
        </object>
        <object placeholders="1" c4Type="Relationship" c4Technology="JSON/HTTP" c4Description="Obtiene resultados de gacha, &#xa;historial y personajes &#xa;obtenidos por el usuario" label="&lt;div style=&quot;text-align: left&quot;&gt;&lt;div style=&quot;text-align: center&quot;&gt;&lt;b&gt;%c4Description%&lt;/b&gt;&lt;/div&gt;&lt;div style=&quot;text-align: center&quot;&gt;[%c4Technology%]&lt;/div&gt;&lt;/div&gt;" id="ZvTTCeS15qckxmK0OYnX-13">
          <mxCell style="endArrow=blockThin;html=1;fontSize=12;fontColor=#404040;strokeWidth=2;endFill=1;strokeColor=#828282;elbow=vertical;metaEdit=1;endSize=14;startSize=14;jumpStyle=arc;jumpSize=16;rounded=0;exitX=1;exitY=0.5;exitDx=0;exitDy=0;exitPerimeter=0;entryX=0.75;entryY=0;entryDx=0;entryDy=0;entryPerimeter=0;dashed=1;dashPattern=12 12;" edge="1" parent="1" source="ZvTTCeS15qckxmK0OYnX-49" target="ZvTTCeS15qckxmK0OYnX-6">
            <mxGeometry width="240" relative="1" as="geometry">
              <mxPoint x="1000" y="310" as="sourcePoint" />
              <mxPoint x="600" y="530" as="targetPoint" />
            </mxGeometry>
          </mxCell>
        </object>
        <object placeholders="1" c4Name="Modulo acceso" c4Type="Component" c4Technology="NestJS Module" c4Description="Verifica los permisos para permitir o denegar los cambios." label="&lt;font style=&quot;font-size: 16px&quot;&gt;&lt;b&gt;%c4Name%&lt;/b&gt;&lt;/font&gt;&lt;div&gt;[%c4Type%: %c4Technology%]&lt;/div&gt;&lt;br&gt;&lt;div&gt;&lt;font style=&quot;font-size: 11px&quot;&gt;%c4Description%&lt;/font&gt;&lt;/div&gt;" id="ZvTTCeS15qckxmK0OYnX-34">
          <mxCell style="rounded=1;whiteSpace=wrap;html=1;labelBackgroundColor=none;fillColor=none;fontColor=#0E7DAD;align=center;arcSize=6;strokeColor=#0E7DAD;metaEdit=1;resizable=0;points=[[0.25,0,0],[0.5,0,0],[0.75,0,0],[1,0.25,0],[1,0.5,0],[1,0.75,0],[0.75,1,0],[0.5,1,0],[0.25,1,0],[0,0.75,0],[0,0.5,0],[0,0.25,0]];strokeWidth=3;spacingLeft=10;spacingRight=10;" vertex="1" parent="1">
            <mxGeometry x="535" y="790" width="240" height="120" as="geometry" />
          </mxCell>
        </object>
        <object placeholders="1" c4Type="Relationship" c4Description="Valida permisos" label="&lt;div style=&quot;text-align: left&quot;&gt;&lt;div style=&quot;text-align: center&quot;&gt;&lt;b&gt;%c4Description%&lt;/b&gt;&lt;/div&gt;&lt;/div&gt;" id="ZvTTCeS15qckxmK0OYnX-36">
          <mxCell style="endArrow=blockThin;html=1;fontSize=12;fontColor=#404040;strokeWidth=2;endFill=1;strokeColor=#828282;elbow=vertical;metaEdit=1;endSize=14;startSize=14;jumpStyle=arc;jumpSize=16;rounded=0;entryX=0;entryY=0.25;entryDx=0;entryDy=0;entryPerimeter=0;exitX=0.5;exitY=1;exitDx=0;exitDy=0;exitPerimeter=0;dashed=1;dashPattern=12 12;" edge="1" parent="1" source="ZvTTCeS15qckxmK0OYnX-9" target="ZvTTCeS15qckxmK0OYnX-34">
            <mxGeometry width="240" relative="1" as="geometry">
              <mxPoint x="100" y="710" as="sourcePoint" />
              <mxPoint x="340" y="710" as="targetPoint" />
              <Array as="points">
                <mxPoint x="390" y="700" />
              </Array>
            </mxGeometry>
          </mxCell>
        </object>
        <object placeholders="1" c4Type="Relationship" c4Description="Valida permisos" label="&lt;div style=&quot;text-align: left&quot;&gt;&lt;div style=&quot;text-align: center&quot;&gt;&lt;b&gt;%c4Description%&lt;/b&gt;&lt;/div&gt;&lt;/div&gt;" id="ZvTTCeS15qckxmK0OYnX-38">
          <mxCell style="endArrow=blockThin;html=1;fontSize=12;fontColor=#404040;strokeWidth=2;endFill=1;strokeColor=#828282;elbow=vertical;metaEdit=1;endSize=14;startSize=14;jumpStyle=arc;jumpSize=16;rounded=0;edgeStyle=orthogonalEdgeStyle;entryX=0.5;entryY=0;entryDx=0;entryDy=0;entryPerimeter=0;exitX=0.5;exitY=1;exitDx=0;exitDy=0;exitPerimeter=0;dashed=1;dashPattern=12 12;" edge="1" parent="1" source="ZvTTCeS15qckxmK0OYnX-5" target="ZvTTCeS15qckxmK0OYnX-34">
            <mxGeometry x="0.1852" width="240" relative="1" as="geometry">
              <mxPoint x="630" y="680" as="sourcePoint" />
              <mxPoint x="870" y="680" as="targetPoint" />
              <mxPoint as="offset" />
            </mxGeometry>
          </mxCell>
        </object>
        <object placeholders="1" c4Type="Relationship" c4Description="Valida permisos" label="&lt;div style=&quot;text-align: left&quot;&gt;&lt;div style=&quot;text-align: center&quot;&gt;&lt;b&gt;%c4Description%&lt;/b&gt;&lt;/div&gt;&lt;/div&gt;" id="ZvTTCeS15qckxmK0OYnX-41">
          <mxCell style="endArrow=blockThin;html=1;fontSize=12;fontColor=#404040;strokeWidth=2;endFill=1;strokeColor=#828282;elbow=vertical;metaEdit=1;endSize=14;startSize=14;jumpStyle=arc;jumpSize=16;rounded=0;exitX=0.5;exitY=1;exitDx=0;exitDy=0;exitPerimeter=0;entryX=1;entryY=0.25;entryDx=0;entryDy=0;entryPerimeter=0;dashed=1;dashPattern=12 12;" edge="1" parent="1" source="ZvTTCeS15qckxmK0OYnX-4" target="ZvTTCeS15qckxmK0OYnX-34">
            <mxGeometry width="240" relative="1" as="geometry">
              <mxPoint x="820" y="680" as="sourcePoint" />
              <mxPoint x="1060" y="680" as="targetPoint" />
            </mxGeometry>
          </mxCell>
        </object>
        <object placeholders="1" c4Type="Relationship" c4Description="Valida permisos" label="&lt;div style=&quot;text-align: left&quot;&gt;&lt;div style=&quot;text-align: center&quot;&gt;&lt;b&gt;%c4Description%&lt;/b&gt;&lt;/div&gt;" id="ZvTTCeS15qckxmK0OYnX-42">
          <mxCell style="endArrow=blockThin;html=1;fontSize=10;fontColor=#404040;strokeWidth=2;endFill=1;strokeColor=#828282;elbow=vertical;metaEdit=1;endSize=14;startSize=14;jumpStyle=arc;jumpSize=16;rounded=0;exitX=0.75;exitY=1;exitDx=0;exitDy=0;exitPerimeter=0;entryX=1;entryY=0.5;entryDx=0;entryDy=0;entryPerimeter=0;dashed=1;dashPattern=12 12;" edge="1" parent="1" source="ZvTTCeS15qckxmK0OYnX-6" target="ZvTTCeS15qckxmK0OYnX-34">
            <mxGeometry width="240" relative="1" as="geometry">
              <mxPoint x="1100" y="760" as="sourcePoint" />
              <mxPoint x="1340" y="760" as="targetPoint" />
              <Array as="points">
                <mxPoint x="1250" y="760" />
              </Array>
            </mxGeometry>
          </mxCell>
        </object>
        <object placeholders="1" c4Name="Base de datos" c4Type="Container" c4Technology="MongoDB" c4Description="Almacena información de los usuarios, pulls, personajes e historial." label="&lt;font style=&quot;font-size: 16px&quot;&gt;&lt;b&gt;%c4Name%&lt;/b&gt;&lt;/font&gt;&lt;div&gt;[%c4Type%:&amp;nbsp;%c4Technology%]&lt;/div&gt;&lt;br&gt;&lt;div&gt;&lt;font style=&quot;font-size: 11px&quot;&gt;&lt;font&gt;%c4Description%&lt;/font&gt;&lt;/font&gt;&lt;/div&gt;" id="ZvTTCeS15qckxmK0OYnX-43">
          <mxCell style="shape=cylinder3;size=15;whiteSpace=wrap;html=1;boundedLbl=1;rounded=0;labelBackgroundColor=none;fillColor=none;fontSize=12;fontColor=#0E7DAD;align=center;strokeColor=#0E7DAD;metaEdit=1;points=[[0.5,0,0],[1,0.25,0],[1,0.5,0],[1,0.75,0],[0.5,1,0],[0,0.75,0],[0,0.5,0],[0,0.25,0]];resizable=0;strokeWidth=3;" vertex="1" parent="1">
            <mxGeometry x="535" y="1040" width="240" height="120" as="geometry" />
          </mxCell>
        </object>
        <object placeholders="1" c4Type="Relationship" c4Description="Lectura y escritura" label="&lt;div style=&quot;text-align: left&quot;&gt;&lt;div style=&quot;text-align: center&quot;&gt;&lt;b&gt;%c4Description%&lt;/b&gt;&lt;/div&gt;&lt;/div&gt;" id="ZvTTCeS15qckxmK0OYnX-44">
          <mxCell style="endArrow=blockThin;html=1;fontSize=12;fontColor=#404040;strokeWidth=2;endFill=1;strokeColor=#828282;elbow=vertical;metaEdit=1;endSize=14;startSize=14;jumpStyle=arc;jumpSize=16;rounded=0;edgeStyle=orthogonalEdgeStyle;exitX=0.5;exitY=1;exitDx=0;exitDy=0;exitPerimeter=0;entryX=0.5;entryY=0;entryDx=0;entryDy=0;entryPerimeter=0;dashed=1;dashPattern=12 12;" edge="1" parent="1" source="ZvTTCeS15qckxmK0OYnX-34" target="ZvTTCeS15qckxmK0OYnX-43">
            <mxGeometry width="240" relative="1" as="geometry">
              <mxPoint x="540" y="960" as="sourcePoint" />
              <mxPoint x="780" y="960" as="targetPoint" />
            </mxGeometry>
          </mxCell>
        </object>
        <mxCell id="ZvTTCeS15qckxmK0OYnX-48" value="Backend&lt;br&gt;[Container]" style="text;html=1;align=center;verticalAlign=middle;resizable=0;points=[];autosize=1;strokeColor=none;fillColor=none;fontColor=#0E7DAD;fontStyle=1;fontSize=16;" vertex="1" parent="1">
          <mxGeometry x="5" y="880" width="100" height="50" as="geometry" />
        </mxCell>
        <object placeholders="1" c4Name="UI" c4Type="Container" c4Technology="Javascript, React + Chakra UI" c4Description="UI dinámica para usuario, mostrando tiradas, animaciones y resultados." label="&lt;font style=&quot;font-size: 16px&quot;&gt;&lt;b&gt;%c4Name%&lt;/b&gt;&lt;/font&gt;&lt;div&gt;[%c4Type%:&amp;nbsp;%c4Technology%]&lt;/div&gt;&lt;br&gt;&lt;div&gt;&lt;font style=&quot;font-size: 11px&quot;&gt;&lt;font&gt;%c4Description%&lt;/font&gt;&lt;/font&gt;&lt;/div&gt;" id="ZvTTCeS15qckxmK0OYnX-49">
          <mxCell style="shape=mxgraph.c4.webBrowserContainer2;whiteSpace=wrap;html=1;boundedLbl=1;rounded=0;labelBackgroundColor=none;strokeColor=#118ACD;fillColor=none;strokeColor=#118ACD;strokeColor2=#0E7DAD;fontSize=12;fontColor=#118ACD;align=center;metaEdit=1;points=[[0.5,0,0],[1,0.25,0],[1,0.5,0],[1,0.75,0],[0.5,1,0],[0,0.75,0],[0,0.5,0],[0,0.25,0]];resizable=0;" vertex="1" parent="1">
            <mxGeometry x="535" y="90" width="240" height="160" as="geometry" />
          </mxCell>
        </object>
      </root>
    </mxGraphModel>
  </diagram>
</mxfile>
